<svg xmlns="http://www.w3.org/2000/svg" viewBox="0 0 85.104 92.698"><defs><style>.a{fill:#fff;}.b{fill:none;stroke:#fff;stroke-miterlimit:10;}</style></defs><title>build</title><path class="a" d="M8.84,84.582,38.972,59.3c10.6,11.416,17.192,13.257,19.039,13.551a1.189,1.189,0,0,0,1.142-.09A159.226,159.226,0,0,0,72.512,62.636,156.541,156.541,0,0,0,84.749,51.283a1.192,1.192,0,0,0,.3-.607,8.7,8.7,0,0,0-.15-2.818c-.532-3.014-2.546-9.2-9.851-18.837l2.184-1.831a4.425,4.425,0,0,0,1.221-4.712l-.187-.492a8.336,8.336,0,0,0-3.1-3.7l-.452-.272a4.427,4.427,0,0,0-4.854.386L67.68,20.236C56.987,8.7,50.443,6.928,48.6,6.66a1.189,1.189,0,0,0-1.112.093A145.411,145.411,0,0,0,34.12,16.881,143.266,143.266,0,0,0,21.88,28.243a1.188,1.188,0,0,0-.3.624,8.945,8.945,0,0,0,.164,2.724c.537,3.048,2.559,9.286,9.856,18.923L1.467,75.8A4.469,4.469,0,0,0,.061,79.843a3.67,3.67,0,0,0,.183.666L.432,81a8.346,8.346,0,0,0,3.105,3.7l.449.268A4.433,4.433,0,0,0,8.84,84.582ZM36.994,53.458C31.04,46.364,27.8,40.931,26.025,37.01c.943-.938,2.752-2.7,5.33-5.071,4.369,6.151,8.162,11.135,11.564,15.191,3.841,4.578,8.689,9.788,14.4,15.486-2.837,2.177-4.94,3.69-6.046,4.471C47.715,64.656,42.919,60.518,36.994,53.458ZM67.07,54.752,40.922,23.588c2.619-2.18,5.013-4.094,7.081-5.7,3.54,3.581,8.52,8.726,12.883,13.927,4.829,5.754,9.605,12.349,12.9,17.073C71.873,50.616,69.619,52.6,67.07,54.752Zm-1.378,1.158c-2.556,2.131-4.9,4.008-6.939,5.6C53.009,55.781,48.143,50.554,44.3,45.973c-3.4-4.058-7.206-9.059-11.6-15.254,1.944-1.758,4.242-3.778,6.846-5.974Zm17.031-5.952a158.751,158.751,0,0,1-11.74,10.856c-6.107,5.125-11.227,8.669-12.705,9.668a17.1,17.1,0,0,1-5.425-2.372c2.466-1.761,7.825-5.706,14.613-11.4,6.961-5.842,11.82-10.5,13.877-12.53A16.293,16.293,0,0,1,82.724,49.958ZM71.395,20.227a2.062,2.062,0,0,1,2.1-.167l.452.272a6.142,6.142,0,0,1,2.1,2.5l.187.492a2.067,2.067,0,0,1-.529,2.04l-2.117,1.776c-.673-.849-1.372-1.714-2.126-2.612S69.993,22.8,69.281,22Zm-1.753,5.834c5.937,7.076,9.186,12.487,10.964,16.385-.885.883-2.758,2.72-5.482,5.22-3.308-4.74-8.057-11.282-12.861-17.007-4.341-5.175-9.272-10.281-12.825-13.878,2.839-2.171,4.923-3.663,5.936-4.376C58.914,14.831,63.7,18.974,69.642,26.061ZM23.92,29.548A150.486,150.486,0,0,1,35.651,18.7,153.509,153.509,0,0,1,48.365,9.026,16.374,16.374,0,0,1,53.8,11.38c-2.377,1.69-7.844,5.7-14.8,11.536-6.78,5.69-11.557,10.25-13.7,12.359a22.055,22.055,0,0,1-1.2-4.1A9.831,9.831,0,0,1,23.92,29.548ZM5.207,82.924l-.448-.268a6.142,6.142,0,0,1-2.1-2.5l-.187-.493A2.066,2.066,0,0,1,3,77.619L33.059,52.394c.668.843,1.363,1.7,2.11,2.594s1.484,1.741,2.2,2.549L7.31,82.759A2.068,2.068,0,0,1,5.207,82.924ZM57.04,67.166a.905.905,0,0,1,1.251-.221.919.919,0,0,1,.221,1.252.886.886,0,0,1-.574.375.909.909,0,0,1-.677-.155.877.877,0,0,1-.365-.575A.9.9,0,0,1,57.04,67.166ZM64.4,61.6a.869.869,0,0,1,.574-.375.909.909,0,0,1,.677.155.929.929,0,0,1,.221,1.252.9.9,0,0,1-.585.367.877.877,0,0,1-.666-.147.91.91,0,0,1-.377-.584A.89.89,0,0,1,64.4,61.6ZM79.888,48.109a.909.909,0,0,1,.677.155.94.94,0,0,1,.221,1.252.918.918,0,0,1-1.261.222.944.944,0,0,1-.367-.585.9.9,0,0,1,.73-1.044ZM72.55,54.753a.9.9,0,0,1,.585-.367.877.877,0,0,1,.666.147.919.919,0,0,1,.221,1.252.869.869,0,0,1-.574.375A.909.909,0,0,1,72.771,56a.894.894,0,0,1-.365-.575A.9.9,0,0,1,72.55,54.753ZM49.611,12.363a.9.9,0,1,1-.222-1.261A.944.944,0,0,1,49.611,12.363Zm-7.356,5.562a.9.9,0,1,1-1.471-1.03.905.905,0,0,1,1.251-.221A.928.928,0,0,1,42.255,17.925Zm-15.5,13.5a.9.9,0,0,1-1.034-.742.9.9,0,0,1,1.4-.886.905.905,0,0,1-.363,1.628Zm7.338-6.645a.9.9,0,0,1-.575.365A.9.9,0,1,1,33.2,23.37a.919.919,0,0,1,.666.147A.931.931,0,0,1,34.09,24.777Z"/><line class="b" x1="69.281" y1="76.603" x2="72.391" y2="92.603"/><line class="b" x1="75.391" y1="76.603" x2="72.281" y2="92.603"/><line class="b" x1="69.281" y1="76.603" x2="75.391" y2="76.603"/><line class="b" x1="2.379" y1="11.844" x2="16" y2="24.744"/><line class="b" x1="4.5" y1="0.353" x2="23.92" y2="19.848"/><line class="b" x1="19.875" y1="0.603" x2="31.25" y2="11.844"/></svg>