<svg xmlns="http://www.w3.org/2000/svg" viewBox="0 0 114 130"><defs><style>.a{fill:#fff;stroke:#fff;stroke-miterlimit:10;stroke-width:2px;}</style></defs><title>everything</title><path class="a" d="M104.9,61.75c-3.653,0-7.421,2.506-10.075,5.062-.045.043-12.81,10.63-17.148,14.909a5.608,5.608,0,0,1-3.425,1.4,23.3,23.3,0,0,1-4.652,4h4.652a9.609,9.609,0,0,0,6.233-2.557C82.939,82.151,89,76.879,97.124,70.105c.3-.252.462-.4.478-.412,2.526-2.433,5.324-3.943,7.3-3.943a3.43,3.43,0,0,1,2.607,1.212c2.317,2.411-1.8,6.932-2.72,7.88L86.131,93.357l-.092.092-.086.1c-1.316,1.487-7.915,9.2-8.553,14.993l-.024.218V120.5a4.5,4.5,0,0,1-4.5,4.5H42.187a4.5,4.5,0,0,1-4.5-4.5V108.757l-.024-.22c-.648-5.856-7.7-13.593-9.1-15.084l-.07-.074-.073-.07c-16.854-16.146-18.9-18.1-19.163-18.354-2.19-2.1-3.532-4.4-3.5-6.018A3.049,3.049,0,0,1,7.007,66.63a2.744,2.744,0,0,1,1.929-.791c1.818,0,4.469,1.507,7.091,4.03l.073.069.077.067,17.06,14.827a10.188,10.188,0,0,0,6.133,2.292H44.4a23.3,23.3,0,0,1-4.653-4H39.37a6.2,6.2,0,0,1-3.51-1.312L18.8,66.986c-2.6-2.506-6.29-5.146-9.864-5.147a6.712,6.712,0,0,0-4.595,1.809c-5.04,4.5-1.85,10.366,2.147,14.194C6.571,77.92,25.65,96.2,25.65,96.2s7.5,7.957,8.038,12.78V120.5a8.5,8.5,0,0,0,8.5,8.5H72.876a8.5,8.5,0,0,0,8.5-8.5V108.978c.531-4.823,7.572-12.78,7.572-12.78l18.687-18.543c3.412-3.51,6.834-9.224,2.76-13.464A7.4,7.4,0,0,0,104.9,61.75Z"/><path class="a" d="M57,86.875A19.125,19.125,0,1,0,37.874,67.752,19.128,19.128,0,0,0,57,86.875Zm0-34.25A15.125,15.125,0,1,1,41.874,67.752,15.143,15.143,0,0,1,57,52.625Z"/><path class="a" d="M11,54A10,10,0,1,0,1,44,10,10,0,0,0,11,54Zm0-16a6,6,0,1,1-6,6A6.007,6.007,0,0,1,11,38Z"/><path class="a" d="M57,21A10,10,0,1,0,47,11,10,10,0,0,0,57,21ZM57,5a6,6,0,1,1-6,6A6.007,6.007,0,0,1,57,5Z"/><path class="a" d="M29.007,32a10,10,0,1,0-8.48-4.692A9.954,9.954,0,0,0,29.007,32ZM23.153,20.656a6,6,0,1,1,.764,4.528A5.959,5.959,0,0,1,23.153,20.656Z"/><path class="a" d="M79.69,29.472a10,10,0,1,0-3.162-13.78A9.952,9.952,0,0,0,79.69,29.472Zm.228-11.656a6,6,0,1,1,1.9,8.267A5.971,5.971,0,0,1,79.918,17.815Z"/><path class="a" d="M103,54A10,10,0,1,0,93,44,10,10,0,0,0,103,54Zm0-16a6,6,0,1,1-6,6A6.007,6.007,0,0,1,103,38Z"/></svg>