<svg xmlns="http://www.w3.org/2000/svg" viewBox="0 0 89.076 75.696"><defs><style>.a{fill:#fff;stroke:#fff;stroke-miterlimit:10;}</style></defs><title>graph</title><path class="a" d="M87.853,6.129a8,8,0,1,0-12.888,8.029L55.016,51.7a7.921,7.921,0,0,0-8.286.8L31.461,32.9a7.994,7.994,0,1,0-10.994.845L9.325,58.815a7.995,7.995,0,1,0,2.382.8L22.644,35.007a7.919,7.919,0,0,0,6.876-.533L44.973,54.312a8,8,0,1,0,12.108-1.17L77.118,15.434A8,8,0,0,0,87.853,6.129ZM13.5,66.7A5.5,5.5,0,1,1,8,61.2,5.507,5.507,0,0,1,13.5,66.7Zm6.526-39.145a5.5,5.5,0,1,1,5.5,5.5A5.508,5.508,0,0,1,20.026,27.551Zm31.5,36.834a5.5,5.5,0,1,1,5.5-5.5A5.507,5.507,0,0,1,51.526,64.385ZM81.364,13.348a5.554,5.554,0,0,1-1.293.154,5.485,5.485,0,0,1-2.7-.709,1.15,1.15,0,0,0-.187-.152.732.732,0,0,0-.08-.023,5.489,5.489,0,0,1,1.681-9.965A5.552,5.552,0,0,1,80.081,2.5a5.5,5.5,0,0,1,1.283,10.847Z" transform="translate(0.5 0.5)"/></svg>